<svg fill="#FFFFFF" xmlns="http://www.w3.org/2000/svg"  viewBox="0 0 48 48" width="34px" height="34px"><path d="M 26.164062 7.9101562 C 21.580737 7.77855 17.052814 9.5659849 13.404297 13.476562 C 11.252962 15.781592 9.9083393 18.592905 9.3496094 21.525391 A 1.50015 1.50015 0 0 0 9.0957031 21.972656 L 4.109375 35.271484 C 3.2684976 37.514396 4.9914351 40 7.3867188 40 L 23.5 40 A 1.50015 1.50015 0 0 0 24.050781 39.902344 C 27.580857 39.746356 31.043841 38.260489 33.597656 35.523438 C 37.709162 31.116024 37.863998 23.895982 33.580078 19.458984 A 1.50015 1.50015 0 0 0 33.578125 19.458984 C 31.738966 17.554161 29.44713 16.096377 26.90625 15.705078 C 24.36537 15.313779 21.598664 16.145363 19.408203 18.472656 C 17.909873 20.064632 17.264746 22.288782 17.251953 24.488281 C 17.239163 26.68778 17.864526 28.944223 19.425781 30.546875 C 21.503465 32.679964 25.103969 32.93095 27.541016 30.580078 C 29.407148 28.77865 29.092999 25.971905 27.560547 24.439453 A 1.50015 1.50015 0 1 0 25.439453 26.560547 C 25.907002 27.028095 26.130853 27.77135 25.458984 28.419922 C 24.050031 29.779053 22.646535 29.554039 21.574219 28.453125 C 20.759525 27.616783 20.240793 26.08886 20.25 24.505859 C 20.2592 22.922859 20.802127 21.366368 21.591797 20.527344 C 23.211336 18.806637 24.777802 18.412221 26.451172 18.669922 C 28.124127 18.927559 29.926297 19.99446 31.419922 21.541016 C 34.524004 24.756018 34.40484 30.257976 31.402344 33.476562 C 27.49083 37.668728 20.919696 38.162912 16.474609 34.359375 C 10.818308 29.519438 10.605042 20.870638 15.595703 15.523438 A 1.50015 1.50015 0 0 0 15.597656 15.523438 C 18.727959 12.167794 22.303639 10.799822 26.078125 10.908203 C 29.852611 11.016584 33.863893 12.675497 37.556641 15.666016 A 1.50015 1.50015 0 0 0 39.4375 15.671875 L 44.4375 11.671875 A 1.5007322 1.5007322 0 1 0 42.5625 9.328125 L 38.439453 12.626953 C 34.598568 9.7727716 30.383795 8.0313223 26.164062 7.9101562 z M 9.6640625 29 C 10.472883 31.869854 12.077468 34.546007 14.525391 36.640625 C 14.675943 36.769449 14.835864 36.878897 14.990234 37 L 7.3867188 37 C 6.9900024 37 6.778846 36.695307 6.9179688 36.324219 L 9.6640625 29 z"/></svg>