<svg xmlns="http://www.w3.org/2000/svg"  viewBox="0 0 24 24" width="24px" height="24px"><polyline fill="none" stroke="#000" stroke-miterlimit="10" stroke-width="2" points="11.992,20 1.429,20 4.485,11.473"/><path fill="none" stroke="#000" stroke-linecap="square" stroke-miterlimit="10" stroke-width="2" d="M22.586,4.663L20.05,6.557	c-4.347-3.52-9.665-3.774-13.449,0.281C3.501,10.162,3.843,15.3,7.366,18.314c2.819,2.412,7.115,2.212,9.597-0.448	c1.985-2.128,1.943-5.656-0.119-7.792c-1.86-1.927-4.784-2.591-6.91-0.332c-1.277,1.357-1.26,3.821,0.066,5.183	c0.879,0.902,2.581,1.403,3.654,0.369c0.709-0.684,0.501-1.885-0.266-2.658"/></svg>